<svg width="27" height="30" viewBox="0 0 27 30" fill="#EDCC1F" xmlns="http://www.w3.org/2000/svg" class="Header_shortLogo__3CKEM"><g clip-path="url(#clip0_5_720)"><path fill-rule="evenodd" clip-rule="evenodd" d="M12.7694 0.0982231L0.148924 10.6344C0.0544726 10.7133 0 10.8291 0 10.9512V29.6885C0 29.8605 0.141391 30 0.315806 30H1.15371C5.60433 30 9.87271 28.2581 13.0223 25.1572L8.72886 18.929C7.4168 17.0257 7.24617 14.5726 8.2824 12.5103C8.74839 11.5829 9.52696 10.8443 10.4846 10.4212L10.7845 10.2887C12.2188 9.65498 13.8609 9.66468 15.2874 10.3153L15.6304 10.4717C16.4904 10.864 17.1996 11.5187 17.6533 12.3392C18.776 14.3696 18.6659 16.8464 17.3673 18.7721L13.0608 25.1581C15.8993 28.2414 19.9257 30 24.1487 30H25.6904C25.8614 30 26 29.8633 26 29.6946V10.9504C26 10.8288 25.9459 10.7133 25.8521 10.6345L13.314 0.0990809C13.1572 -0.0327017 12.9267 -0.0330648 12.7694 0.0982231Z"></path></g><defs><clipPath id="clip0_5_720"><rect width="26.23" height="30" fill="white"></rect></clipPath></defs></svg>
